<svg xmlns="http://www.w3.org/2000/svg" viewBox="0 0 360 220" role="img" aria-label="Espai42 logo teletext">
  <rect width="360" height="220" fill="#0000aa"/>
  <g shape-rendering="crispEdges">
    <rect x="26" y="28" width="96" height="20" fill="#00aa66"/>
    <rect x="18" y="48" width="96" height="20" fill="#00aa66"/>
    <rect x="10" y="68" width="96" height="20" fill="#00aa66"/>
    <rect x="2" y="88" width="96" height="20" fill="#ff7700"/>
    <rect x="2" y="108" width="120" height="20" fill="#ff7700"/>
    <rect x="126" y="88" width="40" height="20" fill="#00aa66"/>
    <rect x="186" y="30" width="66" height="20" fill="#42d6ff"/>
    <rect x="174" y="50" width="90" height="20" fill="#42d6ff"/>
    <rect x="174" y="70" width="102" height="20" fill="#00aa66"/>
    <rect x="204" y="90" width="72" height="20" fill="#00aa66"/>
    <rect x="192" y="110" width="72" height="20" fill="#001733"/>
    <rect x="174" y="130" width="84" height="20" fill="#36c9d1"/>
    <rect x="162" y="150" width="48" height="20" fill="#2ec4b6"/>
    <rect x="210" y="150" width="66" height="20" fill="#0f5a3a"/>
    <rect x="126" y="150" width="42" height="20" fill="#001733"/>
  </g>
  <text x="130" y="206" fill="#ffff00" text-anchor="middle" font-family="VT323, monospace" font-size="38">ESPAI</text>
</svg>
